<?xml version="1.0" encoding="UTF-8"?>
<svg xmlns="http://www.w3.org/2000/svg" width="1320" height="760" viewBox="0 0 1320 760" role="img" aria-label="AI Destek proje görseli">
  <defs>
    <linearGradient id="bg-ai-destekli-destek-sistemi" x1="0%" y1="0%" x2="100%" y2="100%">
      <stop offset="0%" stop-color="#0b2e38"/>
      <stop offset="55%" stop-color="#176f86"/>
      <stop offset="100%" stop-color="#0f4c5c"/>
    </linearGradient>
    <radialGradient id="glow-ai-destekli-destek-sistemi" cx="50%" cy="40%" r="60%">
      <stop offset="0%" stop-color="#a78bfa" stop-opacity="0.18"/>
      <stop offset="100%" stop-color="#a78bfa" stop-opacity="0"/>
    </radialGradient>
    <pattern id="grid-ai-destekli-destek-sistemi" width="40" height="40" patternUnits="userSpaceOnUse">
      <path d="M 40 0 L 0 0 0 40" fill="none" stroke="rgba(255,255,255,0.04)" stroke-width="1"/>
    </pattern>
  </defs>
  <rect width="1320" height="760" fill="url(#bg-ai-destekli-destek-sistemi)"/>
  <rect width="1320" height="760" fill="url(#glow-ai-destekli-destek-sistemi)"/>
  <rect width="1320" height="760" fill="url(#grid-ai-destekli-destek-sistemi)"/>
  <circle cx="180" cy="120" r="120" fill="#a78bfa" opacity="0.06"/>
  <circle cx="1140" cy="640" r="160" fill="#a78bfa" opacity="0.05"/>
  
      <rect x="400" y="240" width="520" height="280" rx="20" fill="rgba(255,255,255,0.06)" stroke="rgba(255,255,255,0.2)" stroke-width="2"/>
      <rect x="430" y="280" width="200" height="56" rx="16" fill="rgba(255,255,255,0.1)"/>
      <rect x="650" y="280" width="230" height="56" rx="16" fill="rgba(167,139,250,0.25)" stroke="#a78bfa" stroke-width="1.5"/>
      <rect x="430" y="360" width="280" height="56" rx="16" fill="rgba(255,255,255,0.08)"/>
      <rect x="730" y="360" width="150" height="56" rx="16" fill="rgba(167,139,250,0.25)" stroke="#a78bfa" stroke-width="1.5"/>
      <circle cx="780" cy="308" r="8" fill="#a78bfa"/>
      <circle cx="800" cy="388" r="8" fill="#a78bfa"/>
      <path d="M560 200 L580 230 L610 210 L630 250" stroke="#a78bfa" stroke-width="2" fill="none" opacity="0.6"/>
      <text x="660" y="520" text-anchor="middle" fill="rgba(255,255,255,0.4)" font-size="14" font-family="system-ui,sans-serif">24/7 AI</text>
    
  <text x="80" y="680" fill="rgba(255,255,255,0.35)" font-size="13" font-family="system-ui,-apple-system,sans-serif" letter-spacing="0.12em">GEMU TECHNOLOGY</text>
  <text x="1240" y="680" text-anchor="end" fill="#a78bfa" font-size="13" font-family="system-ui,-apple-system,sans-serif" font-weight="600">AI DESTEK</text>
</svg>