<?xml version="1.0" encoding="UTF-8"?>
<svg xmlns="http://www.w3.org/2000/svg" width="1320" height="760" viewBox="0 0 1320 760" role="img" aria-label="RAG & Doküman proje görseli">
  <defs>
    <linearGradient id="bg-akilli-dokuman-rag-sistemi" x1="0%" y1="0%" x2="100%" y2="100%">
      <stop offset="0%" stop-color="#0b2e38"/>
      <stop offset="55%" stop-color="#176f86"/>
      <stop offset="100%" stop-color="#0f4c5c"/>
    </linearGradient>
    <radialGradient id="glow-akilli-dokuman-rag-sistemi" cx="50%" cy="40%" r="60%">
      <stop offset="0%" stop-color="#fbbf24" stop-opacity="0.18"/>
      <stop offset="100%" stop-color="#fbbf24" stop-opacity="0"/>
    </radialGradient>
    <pattern id="grid-akilli-dokuman-rag-sistemi" width="40" height="40" patternUnits="userSpaceOnUse">
      <path d="M 40 0 L 0 0 0 40" fill="none" stroke="rgba(255,255,255,0.04)" stroke-width="1"/>
    </pattern>
  </defs>
  <rect width="1320" height="760" fill="url(#bg-akilli-dokuman-rag-sistemi)"/>
  <rect width="1320" height="760" fill="url(#glow-akilli-dokuman-rag-sistemi)"/>
  <rect width="1320" height="760" fill="url(#grid-akilli-dokuman-rag-sistemi)"/>
  <circle cx="180" cy="120" r="120" fill="#fbbf24" opacity="0.06"/>
  <circle cx="1140" cy="640" r="160" fill="#fbbf24" opacity="0.05"/>
  
      <rect x="460" y="240" width="160" height="200" rx="8" fill="rgba(255,255,255,0.08)" stroke="rgba(255,255,255,0.2)" stroke-width="1.5" transform="rotate(-8 540 340)"/>
      <rect x="580" y="230" width="160" height="200" rx="8" fill="rgba(255,255,255,0.1)" stroke="rgba(255,255,255,0.25)" stroke-width="1.5"/>
      <rect x="700" y="250" width="160" height="200" rx="8" fill="rgba(255,255,255,0.08)" stroke="rgba(255,255,255,0.2)" stroke-width="1.5" transform="rotate(8 780 350)"/>
      <rect x="610" y="270" width="100" height="8" rx="4" fill="rgba(255,255,255,0.25)"/>
      <rect x="610" y="295" width="80" height="6" rx="3" fill="rgba(255,255,255,0.15)"/>
      <rect x="610" y="315" width="90" height="6" rx="3" fill="rgba(255,255,255,0.12)"/>
      <circle cx="660" cy="480" r="50" fill="rgba(251,191,36,0.15)" stroke="#fbbf24" stroke-width="2"/>
      <circle cx="660" cy="470" r="20" fill="none" stroke="#fbbf24" stroke-width="2"/>
      <line x1="660" y1="460" x2="660" y2="490" stroke="#fbbf24" stroke-width="2"/>
      <line x1="645" y1="475" x2="675" y2="475" stroke="#fbbf24" stroke-width="2"/>
    
  <text x="80" y="680" fill="rgba(255,255,255,0.35)" font-size="13" font-family="system-ui,-apple-system,sans-serif" letter-spacing="0.12em">GEMU TECHNOLOGY</text>
  <text x="1240" y="680" text-anchor="end" fill="#fbbf24" font-size="13" font-family="system-ui,-apple-system,sans-serif" font-weight="600">RAG & DOKÜMAN</text>
</svg>