<?xml version="1.0" encoding="UTF-8"?>
<svg xmlns="http://www.w3.org/2000/svg" width="1320" height="760" viewBox="0 0 1320 760" role="img" aria-label="Kurumsal Web proje görseli">
  <defs>
    <linearGradient id="bg-b2b-siparis-portali" x1="0%" y1="0%" x2="100%" y2="100%">
      <stop offset="0%" stop-color="#0b2e38"/>
      <stop offset="55%" stop-color="#176f86"/>
      <stop offset="100%" stop-color="#0f4c5c"/>
    </linearGradient>
    <radialGradient id="glow-b2b-siparis-portali" cx="50%" cy="40%" r="60%">
      <stop offset="0%" stop-color="#2dd4bf" stop-opacity="0.18"/>
      <stop offset="100%" stop-color="#2dd4bf" stop-opacity="0"/>
    </radialGradient>
    <pattern id="grid-b2b-siparis-portali" width="40" height="40" patternUnits="userSpaceOnUse">
      <path d="M 40 0 L 0 0 0 40" fill="none" stroke="rgba(255,255,255,0.04)" stroke-width="1"/>
    </pattern>
  </defs>
  <rect width="1320" height="760" fill="url(#bg-b2b-siparis-portali)"/>
  <rect width="1320" height="760" fill="url(#glow-b2b-siparis-portali)"/>
  <rect width="1320" height="760" fill="url(#grid-b2b-siparis-portali)"/>
  <circle cx="180" cy="120" r="120" fill="#2dd4bf" opacity="0.06"/>
  <circle cx="1140" cy="640" r="160" fill="#2dd4bf" opacity="0.05"/>
  
      <rect x="420" y="220" width="480" height="320" rx="18" fill="rgba(255,255,255,0.08)" stroke="rgba(255,255,255,0.25)" stroke-width="2"/>
      <rect x="450" y="260" width="180" height="14" rx="7" fill="rgba(255,255,255,0.35)"/>
      <rect x="450" y="300" width="420" height="10" rx="5" fill="rgba(255,255,255,0.15)"/>
      <rect x="450" y="330" width="360" height="10" rx="5" fill="rgba(255,255,255,0.12)"/>
      <rect x="450" y="380" width="140" height="44" rx="10" fill="#2dd4bf" opacity="0.85"/>
      <rect x="610" y="380" width="140" height="44" rx="10" fill="rgba(255,255,255,0.12)" stroke="rgba(255,255,255,0.2)" stroke-width="1.5"/>
      <circle cx="780" cy="270" r="28" fill="rgba(45,212,191,0.2)" stroke="#2dd4bf" stroke-width="2"/>
      <path d="M770 270 L778 278 L792 258" stroke="#2dd4bf" stroke-width="3" fill="none" stroke-linecap="round"/>
    
  <text x="80" y="680" fill="rgba(255,255,255,0.35)" font-size="13" font-family="system-ui,-apple-system,sans-serif" letter-spacing="0.12em">GEMU TECHNOLOGY</text>
  <text x="1240" y="680" text-anchor="end" fill="#2dd4bf" font-size="13" font-family="system-ui,-apple-system,sans-serif" font-weight="600">KURUMSAL WEB</text>
</svg>