<?xml version="1.0" encoding="UTF-8"?>
<svg xmlns="http://www.w3.org/2000/svg" width="1320" height="760" viewBox="0 0 1320 760" role="img" aria-label="AI Agent proje görseli">
  <defs>
    <linearGradient id="bg-kurumsal-ai-agent-platformu" x1="0%" y1="0%" x2="100%" y2="100%">
      <stop offset="0%" stop-color="#0b2e38"/>
      <stop offset="55%" stop-color="#176f86"/>
      <stop offset="100%" stop-color="#0f4c5c"/>
    </linearGradient>
    <radialGradient id="glow-kurumsal-ai-agent-platformu" cx="50%" cy="40%" r="60%">
      <stop offset="0%" stop-color="#34d399" stop-opacity="0.18"/>
      <stop offset="100%" stop-color="#34d399" stop-opacity="0"/>
    </radialGradient>
    <pattern id="grid-kurumsal-ai-agent-platformu" width="40" height="40" patternUnits="userSpaceOnUse">
      <path d="M 40 0 L 0 0 0 40" fill="none" stroke="rgba(255,255,255,0.04)" stroke-width="1"/>
    </pattern>
  </defs>
  <rect width="1320" height="760" fill="url(#bg-kurumsal-ai-agent-platformu)"/>
  <rect width="1320" height="760" fill="url(#glow-kurumsal-ai-agent-platformu)"/>
  <rect width="1320" height="760" fill="url(#grid-kurumsal-ai-agent-platformu)"/>
  <circle cx="180" cy="120" r="120" fill="#34d399" opacity="0.06"/>
  <circle cx="1140" cy="640" r="160" fill="#34d399" opacity="0.05"/>
  
      <circle cx="660" cy="340" r="70" fill="rgba(52,211,153,0.15)" stroke="#34d399" stroke-width="2"/>
      <rect x="630" y="310" width="60" height="50" rx="12" fill="rgba(255,255,255,0.1)" stroke="#34d399" stroke-width="2"/>
      <circle cx="648" cy="330" r="6" fill="#34d399"/>
      <circle cx="672" cy="330" r="6" fill="#34d399"/>
      <path d="M642 350 Q660 362 678 350" stroke="#34d399" stroke-width="2" fill="none"/>
      <circle cx="480" cy="280" r="40" fill="rgba(52,211,153,0.1)" stroke="rgba(52,211,153,0.5)" stroke-width="1.5"/>
      <circle cx="840" cy="280" r="40" fill="rgba(52,211,153,0.1)" stroke="rgba(52,211,153,0.5)" stroke-width="1.5"/>
      <circle cx="480" cy="420" r="40" fill="rgba(52,211,153,0.1)" stroke="rgba(52,211,153,0.5)" stroke-width="1.5"/>
      <circle cx="840" cy="420" r="40" fill="rgba(52,211,153,0.1)" stroke="rgba(52,211,153,0.5)" stroke-width="1.5"/>
      <line x1="520" y1="280" x2="590" y2="310" stroke="rgba(52,211,153,0.4)" stroke-width="1.5"/>
      <line x1="800" y1="280" x2="730" y2="310" stroke="rgba(52,211,153,0.4)" stroke-width="1.5"/>
      <line x1="520" y1="420" x2="590" y2="370" stroke="rgba(52,211,153,0.4)" stroke-width="1.5"/>
      <line x1="800" y1="420" x2="730" y2="370" stroke="rgba(52,211,153,0.4)" stroke-width="1.5"/>
    
  <text x="80" y="680" fill="rgba(255,255,255,0.35)" font-size="13" font-family="system-ui,-apple-system,sans-serif" letter-spacing="0.12em">GEMU TECHNOLOGY</text>
  <text x="1240" y="680" text-anchor="end" fill="#34d399" font-size="13" font-family="system-ui,-apple-system,sans-serif" font-weight="600">AI AGENT</text>
</svg>