<?xml version="1.0" encoding="UTF-8"?>
<svg xmlns="http://www.w3.org/2000/svg" width="1320" height="760" viewBox="0 0 1320 760" role="img" aria-label="Mobil Uygulama proje görseli">
  <defs>
    <linearGradient id="bg-mobil-saha-uygulamasi" x1="0%" y1="0%" x2="100%" y2="100%">
      <stop offset="0%" stop-color="#0b2e38"/>
      <stop offset="55%" stop-color="#176f86"/>
      <stop offset="100%" stop-color="#0f4c5c"/>
    </linearGradient>
    <radialGradient id="glow-mobil-saha-uygulamasi" cx="50%" cy="40%" r="60%">
      <stop offset="0%" stop-color="#38bdf8" stop-opacity="0.18"/>
      <stop offset="100%" stop-color="#38bdf8" stop-opacity="0"/>
    </radialGradient>
    <pattern id="grid-mobil-saha-uygulamasi" width="40" height="40" patternUnits="userSpaceOnUse">
      <path d="M 40 0 L 0 0 0 40" fill="none" stroke="rgba(255,255,255,0.04)" stroke-width="1"/>
    </pattern>
  </defs>
  <rect width="1320" height="760" fill="url(#bg-mobil-saha-uygulamasi)"/>
  <rect width="1320" height="760" fill="url(#glow-mobil-saha-uygulamasi)"/>
  <rect width="1320" height="760" fill="url(#grid-mobil-saha-uygulamasi)"/>
  <circle cx="180" cy="120" r="120" fill="#38bdf8" opacity="0.06"/>
  <circle cx="1140" cy="640" r="160" fill="#38bdf8" opacity="0.05"/>
  
      <rect x="540" y="180" width="240" height="400" rx="32" fill="rgba(255,255,255,0.08)" stroke="rgba(255,255,255,0.25)" stroke-width="2"/>
      <rect x="620" y="210" width="80" height="8" rx="4" fill="rgba(255,255,255,0.2)"/>
      <circle cx="660" cy="290" r="36" fill="rgba(56,189,248,0.2)" stroke="#38bdf8" stroke-width="2"/>
      <path d="M660 262 L660 318 M636 290 L684 290" stroke="#38bdf8" stroke-width="3" stroke-linecap="round"/>
      <rect x="570" y="360" width="180" height="12" rx="6" fill="rgba(255,255,255,0.2)"/>
      <rect x="570" y="390" width="140" height="10" rx="5" fill="rgba(255,255,255,0.12)"/>
      <rect x="570" y="420" width="160" height="10" rx="5" fill="rgba(255,255,255,0.1)"/>
      <rect x="570" y="470" width="180" height="44" rx="12" fill="#38bdf8" opacity="0.85"/>
      <path d="M500 520 Q560 460 620 500 T740 480" stroke="#38bdf8" stroke-width="2" fill="none" opacity="0.5"/>
    
  <text x="80" y="680" fill="rgba(255,255,255,0.35)" font-size="13" font-family="system-ui,-apple-system,sans-serif" letter-spacing="0.12em">GEMU TECHNOLOGY</text>
  <text x="1240" y="680" text-anchor="end" fill="#38bdf8" font-size="13" font-family="system-ui,-apple-system,sans-serif" font-weight="600">MOBIL UYGULAMA</text>
</svg>