<?xml version="1.0" encoding="UTF-8"?>
<svg xmlns="http://www.w3.org/2000/svg" width="1320" height="760" viewBox="0 0 1320 760" role="img" aria-label="Sesli AI proje görseli">
  <defs>
    <linearGradient id="bg-sesli-yapay-zeka-asistani" x1="0%" y1="0%" x2="100%" y2="100%">
      <stop offset="0%" stop-color="#0b2e38"/>
      <stop offset="55%" stop-color="#176f86"/>
      <stop offset="100%" stop-color="#0f4c5c"/>
    </linearGradient>
    <radialGradient id="glow-sesli-yapay-zeka-asistani" cx="50%" cy="40%" r="60%">
      <stop offset="0%" stop-color="#fb7185" stop-opacity="0.18"/>
      <stop offset="100%" stop-color="#fb7185" stop-opacity="0"/>
    </radialGradient>
    <pattern id="grid-sesli-yapay-zeka-asistani" width="40" height="40" patternUnits="userSpaceOnUse">
      <path d="M 40 0 L 0 0 0 40" fill="none" stroke="rgba(255,255,255,0.04)" stroke-width="1"/>
    </pattern>
  </defs>
  <rect width="1320" height="760" fill="url(#bg-sesli-yapay-zeka-asistani)"/>
  <rect width="1320" height="760" fill="url(#glow-sesli-yapay-zeka-asistani)"/>
  <rect width="1320" height="760" fill="url(#grid-sesli-yapay-zeka-asistani)"/>
  <circle cx="180" cy="120" r="120" fill="#fb7185" opacity="0.06"/>
  <circle cx="1140" cy="640" r="160" fill="#fb7185" opacity="0.05"/>
  
      <rect x="610" y="260" width="100" height="160" rx="50" fill="rgba(251,113,133,0.15)" stroke="#fb7185" stroke-width="2"/>
      <rect x="635" y="290" width="50" height="80" rx="25" fill="rgba(255,255,255,0.08)" stroke="rgba(251,113,133,0.5)" stroke-width="1.5"/>
      <line x1="660" y1="420" x2="660" y2="460" stroke="#fb7185" stroke-width="3"/>
      <ellipse cx="660" cy="472" rx="30" ry="8" fill="rgba(251,113,133,0.3)"/>
      <path d="M480 340 Q500 300 520 340 Q540 380 560 340" stroke="#fb7185" stroke-width="2.5" fill="none" opacity="0.7"/>
      <path d="M760 340 Q780 300 800 340 Q820 380 840 340" stroke="#fb7185" stroke-width="2.5" fill="none" opacity="0.7"/>
      <path d="M440 360 Q460 320 480 360 Q500 400 520 360" stroke="#fb7185" stroke-width="2" fill="none" opacity="0.4"/>
      <path d="M800 360 Q820 320 840 360 Q860 400 880 360" stroke="#fb7185" stroke-width="2" fill="none" opacity="0.4"/>
    
  <text x="80" y="680" fill="rgba(255,255,255,0.35)" font-size="13" font-family="system-ui,-apple-system,sans-serif" letter-spacing="0.12em">GEMU TECHNOLOGY</text>
  <text x="1240" y="680" text-anchor="end" fill="#fb7185" font-size="13" font-family="system-ui,-apple-system,sans-serif" font-weight="600">SESLI AI</text>
</svg>